<?xml version="1.0" standalone="no"?>
<!DOCTYPE svg PUBLIC "-//W3C//DTD SVG 20010904//EN"
 "http://www.w3.org/TR/2001/REC-SVG-20010904/DTD/svg10.dtd">
<svg version="1.0" xmlns="http://www.w3.org/2000/svg"
 width="260.000000pt" height="260.000000pt" viewBox="0 0 260.000000 260.000000"
 preserveAspectRatio="xMidYMid meet">
<metadata>
Created by potrace 1.14, written by Peter Selinger 2001-2017
</metadata>
<g transform="translate(0.000000,260.000000) scale(0.100000,-0.100000)"
fill="#000000" stroke="none">
<path d="M337 2503 c-20 -40 -53 -181 -73 -313 -32 -209 -20 -687 18 -711 7
-5 235 -9 505 -9 l493 1 0 529 0 529 -465 1 -464 0 -14 -27z m437 -69 c18 -18
21 -60 6 -99 -9 -24 -8 -26 7 -20 40 16 53 17 53 3 0 -16 -36 -58 -49 -58 -5
0 -11 -9 -14 -20 -6 -25 -6 -25 38 1 20 12 39 19 42 15 12 -12 -26 -76 -52
-88 -14 -6 -25 -20 -25 -30 0 -17 3 -17 43 7 71 41 87 31 40 -26 -15 -17 -42
-38 -60 -45 -20 -9 -30 -19 -27 -28 4 -10 16 -8 54 13 27 14 52 23 55 19 13
-12 -30 -72 -68 -97 -56 -37 -46 -54 12 -23 27 15 52 24 56 20 18 -17 -58
-108 -90 -108 -7 0 -15 -7 -19 -15 -7 -20 -2 -19 47 9 60 34 87 41 87 22 0
-23 -60 -87 -97 -102 -33 -14 -52 -34 -33 -34 6 0 24 7 40 15 40 21 48 1 13
-33 -16 -15 -36 -31 -44 -37 -11 -7 -14 -18 -9 -35 l6 -25 18 33 c18 34 38 36
29 2 -4 -14 0 -20 11 -20 10 0 16 8 16 21 0 26 29 89 41 89 5 0 9 -16 9 -35 0
-35 12 -46 27 -23 4 7 6 26 4 41 -3 31 16 87 30 87 8 0 14 -50 9 -75 -1 -5 8
-1 18 9 16 13 19 26 15 51 -6 39 3 85 17 85 5 0 12 -16 16 -37 6 -33 8 -35 20
-18 8 10 14 29 14 42 0 23 33 48 50 38 16 -10 11 -43 -8 -57 -10 -7 -26 -25
-36 -39 -16 -26 -16 -26 14 -39 16 -7 30 -16 30 -20 0 -13 -50 -21 -69 -11
-14 8 -23 5 -41 -14 -13 -14 -22 -26 -19 -28 2 -2 16 -8 32 -15 15 -6 27 -16
27 -22 0 -16 -50 -23 -77 -11 -21 10 -29 9 -44 -5 -18 -16 -18 -17 6 -36 14
-11 25 -24 25 -29 0 -15 -54 -10 -78 7 -29 20 -61 11 -42 -11 20 -24 2 -31
-32 -12 -36 20 -47 16 -41 -17 5 -27 -7 -39 -31 -30 -10 4 -16 18 -16 35 0 32
-6 35 -34 14 -28 -22 -39 -18 -32 9 8 32 -18 42 -44 16 -21 -21 -80 -28 -80
-9 0 6 12 20 26 32 25 19 25 21 9 33 -12 9 -23 10 -36 4 -10 -6 -31 -10 -48
-10 -38 0 -41 21 -6 40 29 15 29 18 10 44 -11 15 -19 17 -42 9 -30 -10 -63 -7
-63 6 0 10 31 37 48 42 8 3 0 18 -24 43 -33 35 -35 40 -20 54 14 14 17 14 35
-2 10 -9 22 -31 26 -49 l8 -32 6 39 c3 22 11 41 18 43 14 5 28 -57 18 -86 -7
-22 10 -61 26 -61 6 0 7 5 4 11 -9 13 3 59 15 59 12 0 32 -73 25 -92 -3 -8 2
-22 12 -30 17 -16 18 -14 15 30 l-3 47 21 -24 c11 -13 23 -35 26 -50 10 -45
13 -51 27 -51 10 0 13 8 9 28 -5 24 -4 26 11 13 10 -7 17 -22 17 -32 0 -11 5
-19 10 -19 6 0 10 14 10 30 0 18 -5 30 -13 30 -14 0 -67 51 -67 64 0 9 32 4
63 -9 10 -4 17 -3 17 3 0 6 -20 20 -45 31 -42 19 -85 68 -85 98 0 14 64 -7
108 -35 19 -13 22 -12 22 2 0 9 -7 16 -17 16 -20 0 -93 75 -93 95 0 20 4 19
61 -10 37 -18 49 -21 49 -10 0 7 -9 16 -19 20 -25 8 -91 80 -91 100 0 11 6 12
33 3 17 -6 42 -18 55 -26 20 -13 22 -13 22 7 0 15 -6 21 -21 21 -24 0 -89 63
-89 86 0 18 29 12 78 -18 31 -19 32 -19 32 -1 0 10 -13 25 -29 35 -30 17 -68
75 -56 86 3 4 24 -3 46 -15 37 -20 39 -20 39 -3 0 10 -9 22 -20 25 -11 4 -27
20 -35 36 -14 26 -14 29 0 29 9 0 26 -5 37 -11 19 -10 20 -9 13 12 -17 51 -2
119 26 119 4 0 15 -7 23 -16z"/>
<path d="M1310 1299 l0 -1231 48 28 c489 284 815 725 936 1267 39 175 50 286
50 502 -1 254 -36 504 -88 630 l-15 35 -465 0 -466 0 0 -1231z m466 920 c56
-32 71 -57 62 -104 -6 -30 -3 -31 24 -5 31 29 42 21 51 -39 8 -49 7 -55 -16
-79 -27 -29 -51 -103 -62 -190 l-7 -53 67 -71 c68 -72 115 -152 115 -198 0
-38 -43 -93 -104 -134 -30 -20 -62 -39 -70 -42 -13 -5 -16 -26 -16 -123 l0
-117 38 -17 c112 -49 115 -145 8 -197 -39 -18 -46 -26 -46 -50 0 -16 5 -32 10
-35 14 -9 12 -48 -4 -80 -19 -36 -36 -46 -58 -34 -10 6 -27 7 -38 4 -31 -10
-36 16 -7 40 34 26 34 48 2 65 -47 25 -49 71 -5 110 26 24 27 29 23 86 -5 61
-5 62 -45 75 -22 7 -58 29 -81 50 -37 33 -42 42 -42 81 0 58 38 115 103 158
49 32 49 32 45 78 -9 92 -34 197 -53 224 -19 26 -19 30 -5 58 10 19 20 27 30
24 40 -16 5 38 -91 139 -129 137 -169 209 -162 289 5 42 11 57 37 80 31 28 36
29 111 25 59 -2 85 -8 100 -22 20 -18 20 -18 20 8 0 15 3 27 6 27 4 0 31 -14
60 -31z"/>
<path d="M1730 2204 c0 -40 24 -84 52 -93 27 -9 28 -8 28 20 0 43 1 42 -41 67
-35 21 -39 21 -39 6z"/>
<path d="M1645 2200 c3 -5 8 -10 11 -10 2 0 4 5 4 10 0 6 -5 10 -11 10 -5 0
-7 -4 -4 -10z"/>
<path d="M1530 2150 c-11 -11 -20 -26 -20 -33 0 -39 97 -169 166 -222 l34 -26
0 114 0 115 -50 12 c-31 7 -57 21 -69 36 -23 29 -35 30 -61 4z"/>
<path d="M1625 2150 c3 -5 8 -10 11 -10 2 0 4 5 4 10 0 6 -5 10 -11 10 -5 0
-7 -4 -4 -10z"/>
<path d="M1737 2104 c-4 -4 -7 -64 -7 -134 l0 -126 39 -38 39 -38 12 74 c14
84 32 134 61 164 16 17 19 29 14 58 -8 43 -17 45 -43 11 -24 -31 -30 -31 -42
-2 -7 17 -9 18 -9 5 -1 -24 -8 -23 -34 8 -12 14 -26 22 -30 18z"/>
<path d="M1730 1685 c0 -27 -9 -32 -27 -14 -23 23 -24 -12 -3 -57 28 -57 46
-180 56 -372 6 -133 14 -176 29 -160 3 2 7 131 11 287 l7 282 -29 30 c-34 36
-44 37 -44 4z"/>
<path d="M1820 1512 l0 -123 23 12 c34 18 58 42 68 67 12 31 -17 96 -60 136
l-31 30 0 -122z"/>
<path d="M1691 1216 c-40 -41 -38 -62 9 -94 l35 -23 3 53 c2 30 -1 64 -5 76
-8 22 -9 22 -42 -12z"/>
<path d="M1772 903 c2 -53 8 -98 13 -100 6 -2 9 22 8 59 -1 35 -2 80 -2 101
-1 20 -6 37 -11 37 -7 0 -10 -35 -8 -97z"/>
<path d="M1820 940 c0 -39 1 -39 25 -28 14 6 25 17 25 23 0 7 -11 20 -25 29
l-25 16 0 -40z"/>
<path d="M1772 703 c2 -21 7 -36 13 -33 12 6 16 29 9 53 -10 32 -25 18 -22
-20z"/>
<path d="M280 1433 c0 -10 13 -70 30 -135 128 -508 451 -928 923 -1202 l47
-28 0 691 0 691 -500 0 c-470 0 -500 -1 -500 -17z m748 -280 l3 -112 62 -3 62
-3 0 -195 0 -195 -197 -3 -198 -2 0 109 0 110 -62 3 -63 3 -3 190 c-1 104 0
195 3 202 3 11 46 13 197 11 l193 -3 3 -112z"/>
<path d="M698 1180 l-5 -30 84 0 83 0 0 30 0 30 -79 0 -79 0 -4 -30z"/>
<path d="M918 1130 l-3 -80 33 0 32 0 0 80 0 80 -29 0 -29 0 -4 -80z"/>
<path d="M810 1065 c0 -18 5 -25 20 -25 15 0 20 7 20 25 0 18 -5 25 -20 25
-15 0 -20 -7 -20 -25z"/>
<path d="M690 1000 l0 -80 35 0 35 0 0 80 0 80 -35 0 -35 0 0 -80z"/>
<path d="M810 950 l0 -30 85 0 85 0 0 30 0 30 -85 0 -85 0 0 -30z"/>
<path d="M1030 899 l0 -80 31 3 31 3 1 78 2 77 -32 0 -33 0 0 -81z"/>
<path d="M818 780 l4 -80 29 0 29 0 0 80 0 80 -32 0 -33 0 3 -80z"/>
<path d="M937 840 c3 -11 14 -20 24 -20 12 0 19 7 19 20 0 14 -7 20 -24 20
-19 0 -23 -4 -19 -20z"/>
<path d="M930 735 l0 -35 80 0 80 0 0 35 0 35 -80 0 -80 0 0 -35z"/>
</g>
</svg>
