<?xml version="1.0" standalone="no"?>
<!DOCTYPE svg PUBLIC "-//W3C//DTD SVG 20010904//EN"
 "http://www.w3.org/TR/2001/REC-SVG-20010904/DTD/svg10.dtd">
<svg version="1.0" xmlns="http://www.w3.org/2000/svg"
 width="256.000000pt" height="256.000000pt" viewBox="0 0 256.000000 256.000000"
 preserveAspectRatio="xMidYMid meet">
<metadata>
Created by potrace 1.14, written by Peter Selinger 2001-2017
</metadata>
<g transform="translate(0.000000,256.000000) scale(0.100000,-0.100000)"
fill="#000000" stroke="none">
<path d="M330 2465 c-50 -131 -81 -332 -87 -566 -5 -178 6 -390 23 -434 5 -13
70 -15 500 -15 l494 0 0 520 0 520 -460 0 -460 0 -10 -25z m435 -72 c17 -16
17 -48 0 -101 l-8 -24 33 17 c17 9 34 14 37 11 11 -11 -11 -47 -38 -61 -17 -9
-29 -24 -29 -35 0 -19 2 -19 40 6 22 15 43 24 47 20 13 -12 -32 -79 -59 -90
-16 -6 -28 -18 -28 -28 0 -23 7 -22 55 7 46 29 55 30 55 11 0 -23 -42 -68 -77
-82 -18 -8 -33 -21 -33 -29 0 -19 -4 -20 55 10 27 14 51 21 53 16 6 -19 -30
-73 -64 -93 -54 -32 -43 -52 12 -21 25 14 48 22 52 19 13 -14 -34 -80 -70 -99
-21 -10 -38 -23 -38 -29 0 -5 3 -8 8 -6 4 2 33 17 64 33 32 16 60 26 64 22 15
-15 -48 -89 -92 -108 -24 -11 -44 -24 -44 -29 0 -13 6 -13 41 6 58 29 50 -13
-9 -51 -22 -14 -31 -28 -32 -47 0 -32 16 -37 25 -9 3 11 13 25 22 33 14 12 16
10 11 -15 -4 -22 -2 -27 11 -25 9 2 17 12 19 23 6 37 35 95 44 88 6 -3 7 -23
4 -45 l-6 -39 22 17 c19 14 22 25 20 54 -4 40 13 84 29 75 5 -4 9 -23 9 -43
l0 -37 19 24 c15 19 16 29 8 52 -13 34 8 94 24 68 5 -7 9 -25 9 -39 1 -24 1
-24 15 -6 8 11 15 27 15 36 0 25 38 56 52 42 13 -13 2 -62 -15 -62 -7 0 -20
-13 -29 -28 -17 -28 -17 -28 13 -39 45 -17 37 -36 -13 -31 -33 4 -48 0 -65
-15 l-23 -20 31 -19 c16 -10 27 -23 24 -28 -8 -13 -51 -13 -74 0 -14 7 -23 5
-36 -10 -17 -19 -17 -21 10 -41 24 -19 25 -23 11 -31 -12 -7 -29 -4 -54 9 -21
10 -46 17 -55 15 -18 -4 -18 -5 -1 -23 16 -18 16 -19 -9 -19 -14 0 -30 7 -35
16 -13 24 -32 8 -32 -27 0 -16 -2 -29 -4 -29 -20 0 -36 16 -36 35 0 30 -14 39
-30 20 -13 -16 -40 -21 -40 -7 0 4 5 13 11 19 19 19 -28 26 -53 9 -25 -18 -78
-22 -78 -6 0 5 11 17 25 26 14 9 25 20 25 24 0 15 -36 21 -63 11 -25 -10 -67
-5 -67 8 0 4 14 15 31 25 29 17 30 19 13 37 -13 15 -25 18 -51 13 -18 -3 -40
-3 -49 0 -15 6 -15 8 1 26 10 11 24 20 32 20 21 0 15 18 -12 36 -27 18 -42 51
-28 65 16 16 44 -2 50 -32 7 -37 23 -48 23 -17 0 13 5 30 10 38 17 26 32 -9
26 -61 -4 -38 -1 -50 15 -65 19 -17 19 -16 19 24 0 23 4 42 10 42 12 0 33 -78
25 -97 -5 -15 10 -43 24 -43 4 0 5 18 3 40 -2 22 0 40 6 40 13 0 42 -62 42
-89 0 -12 2 -21 4 -21 2 0 11 -3 19 -6 11 -4 13 1 9 22 -6 34 14 24 31 -14
l11 -27 4 30 c3 21 -1 33 -14 40 -26 15 -64 53 -64 64 0 6 16 4 40 -4 54 -19
51 -2 -5 25 -41 20 -85 71 -85 99 0 11 94 -21 117 -41 10 -8 13 -6 13 6 0 9
-6 16 -14 16 -31 0 -109 90 -93 107 3 2 28 -7 56 -21 57 -30 75 -13 19 17 -35
18 -82 79 -76 96 2 6 25 0 56 -14 41 -19 52 -21 52 -10 0 8 -15 21 -34 29 -34
14 -80 68 -74 86 2 6 25 0 53 -15 60 -30 55 -29 55 -7 0 9 -10 22 -22 27 -12
6 -33 26 -46 45 -20 29 -21 36 -8 38 9 2 29 -6 46 -18 45 -32 40 2 -7 48 -37
35 -37 36 -15 40 13 2 30 -2 39 -10 15 -12 15 -10 8 17 -12 42 -10 82 5 100
16 19 25 19 45 -2z"/>
<path d="M1290 1279 l0 -1211 48 28 c447 259 761 658 896 1139 57 206 71 319
71 595 -1 275 -16 410 -68 580 l-23 75 -462 3 -462 2 0 -1211z m465 900 c54
-30 55 -32 55 -76 l0 -44 26 20 c15 11 30 19 34 16 4 -2 10 -28 14 -56 6 -44
4 -55 -13 -73 -29 -31 -47 -81 -60 -164 l-11 -74 51 -56 c116 -127 149 -207
110 -269 -22 -34 -85 -85 -138 -111 l-33 -16 0 -113 0 -113 39 -19 c45 -23 91
-74 91 -101 0 -29 -46 -76 -90 -94 -45 -18 -51 -42 -26 -91 13 -25 13 -31 -4
-63 -24 -44 -39 -53 -62 -41 -10 6 -27 7 -38 4 -29 -9 -32 10 -5 35 33 31 31
46 -5 77 -16 13 -30 34 -30 45 0 11 14 33 30 48 27 25 30 34 30 88 l0 60 -55
22 c-148 60 -152 183 -9 283 l46 32 -7 68 c-8 87 -32 177 -52 199 -22 25 0 82
28 73 42 -14 15 32 -74 124 -145 150 -183 215 -175 303 8 78 36 98 136 98 54
0 84 -5 100 -16 21 -14 22 -14 22 5 0 28 11 26 75 -10z"/>
<path d="M1700 2174 c0 -35 24 -83 47 -93 38 -17 44 -13 41 24 -2 30 -10 40
-45 61 -38 22 -43 23 -43 8z"/>
<path d="M1620 2170 c0 -5 5 -10 11 -10 5 0 7 5 4 10 -3 6 -8 10 -11 10 -2 0
-4 -4 -4 -10z"/>
<path d="M1510 2122 c-46 -37 -6 -115 124 -242 l56 -54 0 120 0 121 -55 12
c-39 9 -60 20 -71 37 -19 29 -25 29 -54 6z"/>
<path d="M1590 2120 c0 -5 7 -10 16 -10 8 0 12 5 9 10 -3 6 -10 10 -16 10 -5
0 -9 -4 -9 -10z"/>
<path d="M1700 1943 l0 -128 39 -32 c42 -35 51 -34 51 7 0 47 30 144 56 177
20 27 24 40 18 68 -3 19 -9 35 -13 35 -3 0 -18 -14 -33 -32 -25 -30 -27 -31
-28 -11 0 12 -4 25 -10 28 -5 3 -10 -1 -10 -9 0 -23 -17 -20 -25 4 -3 11 -15
20 -26 20 -18 0 -19 -8 -19 -127z"/>
<path d="M1706 1666 c5 -20 2 -26 -9 -26 -9 0 -19 5 -23 11 -5 8 -9 7 -15 -4
-6 -10 -3 -27 10 -49 10 -18 24 -56 30 -84 11 -55 29 -265 32 -376 2 -49 6
-69 17 -73 8 -3 16 -4 18 -2 6 6 5 567 -1 577 -3 5 -19 19 -36 31 l-30 21 7
-26z"/>
<path d="M1791 1491 c-1 -76 2 -121 8 -121 16 0 79 59 86 81 8 25 -26 97 -64
133 l-29 28 -1 -121z"/>
<path d="M1661 1195 c-35 -40 -35 -40 -21 -64 8 -17 67 -49 73 -40 6 10 -6
139 -13 139 -4 0 -22 -16 -39 -35z"/>
<path d="M1740 896 c0 -71 4 -97 15 -106 13 -11 15 0 15 88 0 80 -3 101 -15
106 -13 4 -15 -9 -15 -88z"/>
<path d="M1790 925 c0 -19 3 -35 6 -35 16 0 44 22 44 35 0 13 -28 35 -44 35
-3 0 -6 -16 -6 -35z"/>
<path d="M1742 694 c2 -20 9 -39 16 -42 10 -3 12 6 10 34 -2 20 -9 39 -16 42
-10 3 -12 -6 -10 -34z"/>
<path d="M764 1423 l-492 -3 18 -83 c88 -398 296 -748 601 -1011 100 -86 263
-202 337 -240 l32 -17 0 681 c0 374 -1 679 -2 678 -2 -2 -224 -4 -494 -5z
m254 -290 l3 -113 60 0 59 0 -2 -192 -3 -193 -195 0 -195 0 0 108 0 107 -62 0
-63 0 0 193 c0 107 3 197 7 201 4 3 93 5 197 4 l191 -3 3 -112z"/>
<path d="M680 1160 l0 -30 85 0 85 0 0 30 0 30 -85 0 -85 0 0 -30z"/>
<path d="M900 1110 l0 -80 30 0 30 0 0 80 0 80 -30 0 -30 0 0 -80z"/>
<path d="M682 988 c3 -82 3 -83 31 -86 l27 -3 0 75 c0 42 1 79 3 84 1 4 -13 8
-31 10 l-33 3 3 -83z"/>
<path d="M795 1048 c1 -15 9 -24 23 -26 18 -3 22 2 22 22 0 21 -5 26 -23 26
-18 0 -23 -5 -22 -22z"/>
<path d="M800 935 l0 -35 80 0 80 0 0 35 0 35 -80 0 -80 0 0 -35z"/>
<path d="M1020 890 l0 -80 30 0 30 0 0 80 0 80 -30 0 -30 0 0 -80z"/>
<path d="M800 770 l0 -80 36 0 35 0 -2 80 -2 80 -33 0 -34 0 0 -80z"/>
<path d="M920 824 c0 -21 4 -25 23 -22 14 2 23 11 25 26 3 18 -1 22 -22 22
-21 0 -26 -5 -26 -26z"/>
<path d="M920 723 l0 -33 80 0 80 0 0 29 0 29 -80 4 -80 3 0 -32z"/>
</g>
</svg>
